<?xml version="1.0" encoding="UTF-8" standalone="no"?><svg xmlns="http://www.w3.org/2000/svg" xmlns:xlink="http://www.w3.org/1999/xlink" contentScriptType="application/ecmascript" contentStyleType="text/css" height="387px" preserveAspectRatio="none" style="width:497px;height:387px;" version="1.1" viewBox="0 0 497 387" width="497px" zoomAndPan="magnify"><defs><filter height="300%" id="fsk8m301bvyi0" width="300%" x="-1" y="-1"><feGaussianBlur result="blurOut" stdDeviation="2.0"/><feColorMatrix in="blurOut" result="blurOut2" type="matrix" values="0 0 0 0 0 0 0 0 0 0 0 0 0 0 0 0 0 0 .4 0"/><feOffset dx="4.0" dy="4.0" in="blurOut2" result="blurOut3"/><feBlend in="SourceGraphic" in2="blurOut3" mode="normal"/></filter></defs><g><ellipse cx="16" cy="69.5" fill="#000000" filter="url(#fsk8m301bvyi0)" rx="10" ry="10" style="stroke: none; stroke-width: 1.0;"/><rect fill="#FEFECE" filter="url(#fsk8m301bvyi0)" height="50" rx="12.5" ry="12.5" style="stroke: #A80036; stroke-width: 1.5;" width="55" x="151.5" y="223"/><line style="stroke: #A80036; stroke-width: 1.5;" x1="151.5" x2="206.5" y1="249.4883" y2="249.4883"/><text fill="#000000" font-family="sans-serif" font-size="14" lengthAdjust="spacingAndGlyphs" textLength="35" x="161.5" y="241.5352">Draw</text><rect fill="#FEFECE" filter="url(#fsk8m301bvyi0)" height="50" rx="12.5" ry="12.5" style="stroke: #A80036; stroke-width: 1.5;" width="90" x="242" y="223"/><line style="stroke: #A80036; stroke-width: 1.5;" x1="242" x2="332" y1="249.4883" y2="249.4883"/><text fill="#000000" font-family="sans-serif" font-size="14" lengthAdjust="spacingAndGlyphs" textLength="70" x="252" y="241.5352">WhitesWin</text><rect fill="#FEFECE" filter="url(#fsk8m301bvyi0)" height="50" rx="12.5" ry="12.5" style="stroke: #A80036; stroke-width: 1.5;" width="87" x="371.5" y="223"/><line style="stroke: #A80036; stroke-width: 1.5;" x1="371.5" x2="458.5" y1="249.4883" y2="249.4883"/><text fill="#000000" font-family="sans-serif" font-size="14" lengthAdjust="spacingAndGlyphs" textLength="67" x="381.5" y="241.5352">BlacksWin</text><ellipse cx="287" cy="344" fill="none" filter="url(#fsk8m301bvyi0)" rx="10" ry="10" style="stroke: #000000; stroke-width: 1.0;"/><ellipse cx="287.5" cy="344.5" fill="#000000" rx="6" ry="6" style="stroke: none; stroke-width: 1.0;"/><rect fill="#FEFECE" filter="url(#fsk8m301bvyi0)" height="122.5683" rx="12.5" ry="12.5" style="stroke: #A80036; stroke-width: 1.5;" width="385" x="61.5" y="8"/><rect fill="#FFFFFF" height="90.08" rx="12.5" ry="12.5" style="stroke: #FFFFFF; stroke-width: 1.0;" width="379" x="64.5" y="37.4883"/><line style="stroke: #A80036; stroke-width: 1.5;" x1="61.5" x2="446.5" y1="34.4883" y2="34.4883"/><text fill="#000000" font-family="sans-serif" font-size="14" lengthAdjust="spacingAndGlyphs" textLength="49" x="229.5" y="26.5352">Playing</text><ellipse cx="82.5" cy="74.4883" fill="#000000" filter="url(#fsk8m301bvyi0)" rx="10" ry="10" style="stroke: none; stroke-width: 1.0;"/><rect fill="#FEFECE" filter="url(#fsk8m301bvyi0)" height="50" rx="12.5" ry="12.5" style="stroke: #A80036; stroke-width: 1.5;" width="98" x="110.5" y="49.4883"/><line style="stroke: #A80036; stroke-width: 1.5;" x1="110.5" x2="208.5" y1="75.9766" y2="75.9766"/><text fill="#000000" font-family="sans-serif" font-size="14" lengthAdjust="spacingAndGlyphs" textLength="78" x="120.5" y="68.0234">WhitesTurn</text><rect fill="#FEFECE" filter="url(#fsk8m301bvyi0)" height="50" rx="12.5" ry="12.5" style="stroke: #A80036; stroke-width: 1.5;" width="95" x="318" y="49.4883"/><line style="stroke: #A80036; stroke-width: 1.5;" x1="318" x2="413" y1="75.9766" y2="75.9766"/><text fill="#000000" font-family="sans-serif" font-size="14" lengthAdjust="spacingAndGlyphs" textLength="75" x="328" y="68.0234">BlacksTurn</text><!--link *start*Nominal to WhitesTurn--><path d="M92.73,74.4883 C96.88,74.4883 101.04,74.4883 105.2,74.4883 " fill="none" id="*start*Nominal-&gt;WhitesTurn" style="stroke: #A80036; stroke-width: 1.0;"/><polygon fill="#A80036" points="110.46,74.4883,101.46,70.4883,105.46,74.4883,101.46,78.4883,110.46,74.4883" style="stroke: #A80036; stroke-width: 1.0;"/><!--link WhitesTurn to BlacksTurn--><path d="M208.58,74.4883 C239.98,74.4883 280.7,74.4883 312.79,74.4883 " fill="none" id="WhitesTurn-&gt;BlacksTurn" style="stroke: #A80036; stroke-width: 1.0;"/><polygon fill="#A80036" points="317.86,74.4883,308.86,70.4883,312.86,74.4883,308.86,78.4883,317.86,74.4883" style="stroke: #A80036; stroke-width: 1.0;"/><text fill="#000000" font-family="sans-serif" font-size="13" lengthAdjust="spacingAndGlyphs" textLength="90" x="218.25" y="53.0566">Whites's move</text><text fill="#000000" font-family="sans-serif" font-size="13" lengthAdjust="spacingAndGlyphs" textLength="80" x="223.25" y="68.3672">[!checkmate]</text><!--link BlacksTurn to WhitesTurn--><path d="M331.18,99.5783 C323.94,103.6683 316.1,107.2783 308.25,109.4883 C289,114.9083 237.53,114.7983 218.25,109.4883 C211.86,107.7383 205.47,105.0783 199.38,102.0083 " fill="none" id="BlacksTurn-&gt;WhitesTurn" style="stroke: #A80036; stroke-width: 1.0;"/><polygon fill="#A80036" points="194.78,99.5783,200.8741,107.3154,199.2024,101.9111,204.6066,100.2395,194.78,99.5783" style="stroke: #A80036; stroke-width: 1.0;"/><text fill="#000000" font-family="sans-serif" font-size="13" lengthAdjust="spacingAndGlyphs" textLength="88" x="219.25" y="91.0566">Blacks's move</text><text fill="#000000" font-family="sans-serif" font-size="13" lengthAdjust="spacingAndGlyphs" textLength="80" x="223.25" y="106.3672">[!checkmate]</text><!--link *start to Nominal--><path d="M26.23,69.5 C36.2,69.5 46.18,69.5 56.15,69.5 " fill="none" id="*start-&gt;Nominal" style="stroke: #A80036; stroke-width: 1.0;"/><polygon fill="#A80036" points="61.37,69.5,52.37,65.5,56.37,69.5,52.37,73.5,61.37,69.5" style="stroke: #A80036; stroke-width: 1.0;"/><!--link Nominal to Draw--><path d="M133.58,131.12 C124.28,139.95 116.14,149.89 110,161 C103.12,173.45 103.77,180.21 110,193 C117.79,208.99 132.85,221.63 146.92,230.66 " fill="none" id="Nominal-&gt;Draw" style="stroke: #A80036; stroke-width: 1.0;"/><polygon fill="#A80036" points="151.25,233.34,145.7059,225.1998,146.9996,230.7067,141.4927,232.0005,151.25,233.34" style="stroke: #A80036; stroke-width: 1.0;"/><text fill="#000000" font-family="sans-serif" font-size="13" lengthAdjust="spacingAndGlyphs" textLength="68" x="111" y="182.0684">repetitions</text><!--link Nominal to Draw--><path d="M228.19,131.24 C215.69,160.66 201.26,194.61 191.28,218.1 " fill="none" id="Nominal-&gt;Draw-1" style="stroke: #A80036; stroke-width: 1.0;"/><polygon fill="#A80036" points="189.22,222.95,196.4167,216.2264,191.1724,218.3469,189.0518,213.1026,189.22,222.95" style="stroke: #A80036; stroke-width: 1.0;"/><text fill="#000000" font-family="sans-serif" font-size="13" lengthAdjust="spacingAndGlyphs" textLength="20" x="216" y="182.0684">pat</text><!--link Nominal to WhitesWin--><path d="M265.36,131.24 C270.83,160.54 277.15,194.32 281.54,217.81 " fill="none" id="Nominal-&gt;WhitesWin" style="stroke: #A80036; stroke-width: 1.0;"/><polygon fill="#A80036" points="282.5,222.95,284.7594,213.3638,281.5717,218.0369,276.8985,214.8492,282.5,222.95" style="stroke: #A80036; stroke-width: 1.0;"/><text fill="#000000" font-family="sans-serif" font-size="13" lengthAdjust="spacingAndGlyphs" textLength="90" x="278" y="174.5684">Whites's move</text><text fill="#000000" font-family="sans-serif" font-size="13" lengthAdjust="spacingAndGlyphs" textLength="76" x="285" y="189.8789">[checkmate]</text><!--link Nominal to BlacksWin--><path d="M347.71,131.1 C358.37,140.32 368.45,150.35 377,161 C390.54,177.87 400.25,200.33 406.46,218.06 " fill="none" id="Nominal-&gt;BlacksWin" style="stroke: #A80036; stroke-width: 1.0;"/><polygon fill="#A80036" points="408.12,222.93,408.9978,213.1203,406.5046,218.1981,401.4268,215.705,408.12,222.93" style="stroke: #A80036; stroke-width: 1.0;"/><text fill="#000000" font-family="sans-serif" font-size="13" lengthAdjust="spacingAndGlyphs" textLength="88" x="397" y="174.5684">Blacks's move</text><text fill="#000000" font-family="sans-serif" font-size="13" lengthAdjust="spacingAndGlyphs" textLength="76" x="403" y="189.8789">[checkmate]</text><!--link WhitesWin to *end--><path d="M287,273.21 C287,290.84 287,314.13 287,328.84 " fill="none" id="WhitesWin-&gt;*end" style="stroke: #A80036; stroke-width: 1.0;"/><polygon fill="#A80036" points="287,333.84,291,324.84,287,328.84,283,324.84,287,333.84" style="stroke: #A80036; stroke-width: 1.0;"/><!--link BlacksWin to *end--><path d="M382.04,273.21 C354.86,293.17 317.83,320.36 299.02,334.17 " fill="none" id="BlacksWin-&gt;*end" style="stroke: #A80036; stroke-width: 1.0;"/><polygon fill="#A80036" points="294.65,337.38,304.2721,335.2789,298.6807,334.4213,299.5382,328.8299,294.65,337.38" style="stroke: #A80036; stroke-width: 1.0;"/><!--link Draw to *end--><path d="M206.53,272.96 C229.12,292.62 259.91,319.42 276.07,333.49 " fill="none" id="Draw-&gt;*end" style="stroke: #A80036; stroke-width: 1.0;"/><polygon fill="#A80036" points="279.85,336.78,275.6916,327.8521,276.08,333.4956,270.4365,333.884,279.85,336.78" style="stroke: #A80036; stroke-width: 1.0;"/><text fill="#888888" font-family="sans-serif" font-size="10" lengthAdjust="spacingAndGlyphs" textLength="270" x="117" y="373.668">Adapted from Nilolay Buldakov solution 2020-04-10 :-)</text><!--
@startuml


[*] -> Nominal
state Nominal as "Playing" {
[*] -> WhitesTurn
WhitesTurn -> BlacksTurn : Whites's move\n[!checkmate]
BlacksTurn -> WhitesTurn : Blacks's move\n[!checkmate]
}
Nominal - -> Draw  : repetitions
Nominal - -> Draw  : pat
Nominal - -> WhitesWin : Whites's move\n[checkmate]
Nominal - -> BlacksWin : Blacks's move\n[checkmate]
WhitesWin - -> [*]
BlacksWin - -> [*]
Draw - -> [*]

center footer Adapted from Nilolay Buldakov solution 2020-04-10 :-)

@enduml

PlantUML version 1.2019.09(Mon Aug 26 18:19:51 CEST 2019)
(GPL source distribution)
Java Runtime: Java(TM) SE Runtime Environment
JVM: Java HotSpot(TM) 64-Bit Server VM
Java Version: 1.8.0_152-b16
Operating System: Mac OS X
OS Version: 10.15.4
Default Encoding: UTF-8
Language: fr
Country: FR
--></g></svg>