<?xml version="1.0" encoding="UTF-8" standalone="no"?><svg xmlns="http://www.w3.org/2000/svg" xmlns:xlink="http://www.w3.org/1999/xlink" contentScriptType="application/ecmascript" contentStyleType="text/css" height="235px" preserveAspectRatio="none" style="width:603px;height:235px;" version="1.1" viewBox="0 0 603 235" width="603px" zoomAndPan="magnify"><defs><filter height="300%" id="fkk4nbss60c68" width="300%" x="-1" y="-1"><feGaussianBlur result="blurOut" stdDeviation="2.0"/><feColorMatrix in="blurOut" result="blurOut2" type="matrix" values="0 0 0 0 0 0 0 0 0 0 0 0 0 0 0 0 0 0 .4 0"/><feOffset dx="4.0" dy="4.0" in="blurOut2" result="blurOut3"/><feBlend in="SourceGraphic" in2="blurOut3" mode="normal"/></filter></defs><g><!--class Worker--><rect fill="#FEFECE" filter="url(#fkk4nbss60c68)" height="60.9551" id="Worker" style="stroke: #A80036; stroke-width: 1.5;" width="111" x="254.5" y="21"/><ellipse cx="286.6" cy="37" fill="#ADD1B2" rx="11" ry="11" style="stroke: #A80036; stroke-width: 1.0;"/><path d="M289.0731,43.1431 Q288.4921,43.4419 287.8529,43.5913 Q287.2138,43.7407 286.5082,43.7407 Q284.0014,43.7407 282.6815,42.0889 Q281.3617,40.437 281.3617,37.3159 Q281.3617,34.1865 282.6815,32.5347 Q284.0014,30.8828 286.5082,30.8828 Q287.2138,30.8828 287.8612,31.0322 Q288.5087,31.1816 289.0731,31.4805 L289.0731,34.2031 Q288.4423,33.6221 287.8488,33.3523 Q287.2553,33.0825 286.6244,33.0825 Q285.2797,33.0825 284.5949,34.1492 Q283.9101,35.2158 283.9101,37.3159 Q283.9101,39.4077 284.5949,40.4744 Q285.2797,41.541 286.6244,41.541 Q287.2553,41.541 287.8488,41.2712 Q288.4423,41.0015 289.0731,40.4204 Z "/><text fill="#000000" font-family="sans-serif" font-size="12" lengthAdjust="spacingAndGlyphs" textLength="41" x="304.4" y="41.5352">Worker</text><line style="stroke: #A80036; stroke-width: 1.5;" x1="255.5" x2="364.5" y1="53" y2="53"/><line style="stroke: #A80036; stroke-width: 1.5;" x1="255.5" x2="364.5" y1="61" y2="61"/><text fill="#000000" font-family="sans-serif" font-size="11" lengthAdjust="spacingAndGlyphs" textLength="99" x="260.5" y="75.6348">public void work();</text><!--class Manager--><rect fill="#FEFECE" filter="url(#fkk4nbss60c68)" height="86.8652" id="Manager" style="stroke: #A80036; stroke-width: 1.5;" width="177" x="42.5" y="8"/><ellipse cx="101.75" cy="24" fill="#ADD1B2" rx="11" ry="11" style="stroke: #A80036; stroke-width: 1.0;"/><path d="M104.2231,30.1431 Q103.6421,30.4419 103.0029,30.5913 Q102.3638,30.7407 101.6582,30.7407 Q99.1514,30.7407 97.8315,29.0889 Q96.5117,27.437 96.5117,24.3159 Q96.5117,21.1865 97.8315,19.5347 Q99.1514,17.8828 101.6582,17.8828 Q102.3638,17.8828 103.0112,18.0322 Q103.6587,18.1816 104.2231,18.4805 L104.2231,21.2031 Q103.5923,20.6221 102.9988,20.3523 Q102.4053,20.0825 101.7744,20.0825 Q100.4297,20.0825 99.7449,21.1492 Q99.0601,22.2158 99.0601,24.3159 Q99.0601,26.4077 99.7449,27.4744 Q100.4297,28.541 101.7744,28.541 Q102.4053,28.541 102.9988,28.2712 Q103.5923,28.0015 104.2231,27.4204 Z "/><text fill="#000000" font-family="sans-serif" font-size="12" lengthAdjust="spacingAndGlyphs" textLength="50" x="122.25" y="28.5352">Manager</text><line style="stroke: #A80036; stroke-width: 1.5;" x1="43.5" x2="218.5" y1="40" y2="40"/><line style="stroke: #A80036; stroke-width: 1.5;" x1="43.5" x2="218.5" y1="48" y2="48"/><text fill="#000000" font-family="sans-serif" font-size="11" lengthAdjust="spacingAndGlyphs" textLength="165" x="48.5" y="62.6348">public void setWorker(Worker);</text><text fill="#000000" font-family="sans-serif" font-size="11" lengthAdjust="spacingAndGlyphs" textLength="0" x="51.5" y="75.5898"/><text fill="#000000" font-family="sans-serif" font-size="11" lengthAdjust="spacingAndGlyphs" textLength="115" x="48.5" y="88.5449">public void manage();</text><path d="M6,155 L6,180.3105 A0,0 0 0 0 6,180.3105 L256,180.3105 A0,0 0 0 0 256,180.3105 L256,165 L246,155 L135,155 L131,95.27 L127,155 L6,155 A0,0 0 0 0 6,155 " fill="#FBFB77" filter="url(#fkk4nbss60c68)" style="stroke: #A80036; stroke-width: 1.0;"/><path d="M246,155 L246,165 L256,165 L246,155 " fill="#FBFB77" style="stroke: #A80036; stroke-width: 1.0;"/><text fill="#000000" font-family="sans-serif" font-size="13" lengthAdjust="spacingAndGlyphs" textLength="229" x="12" y="172.5684">public void manage(){worker.work();}</text><!--class SuperWorker--><rect fill="#FEFECE" filter="url(#fkk4nbss60c68)" height="60.9551" id="SuperWorker" style="stroke: #A80036; stroke-width: 1.5;" width="111" x="400.5" y="21"/><ellipse cx="417.75" cy="37" fill="#ADD1B2" rx="11" ry="11" style="stroke: #A80036; stroke-width: 1.0;"/><path d="M420.2231,43.1431 Q419.6421,43.4419 419.0029,43.5913 Q418.3638,43.7407 417.6582,43.7407 Q415.1514,43.7407 413.8315,42.0889 Q412.5117,40.437 412.5117,37.3159 Q412.5117,34.1865 413.8315,32.5347 Q415.1514,30.8828 417.6582,30.8828 Q418.3638,30.8828 419.0112,31.0322 Q419.6587,31.1816 420.2231,31.4805 L420.2231,34.2031 Q419.5923,33.6221 418.9988,33.3523 Q418.4053,33.0825 417.7744,33.0825 Q416.4297,33.0825 415.7449,34.1492 Q415.0601,35.2158 415.0601,37.3159 Q415.0601,39.4077 415.7449,40.4744 Q416.4297,41.541 417.7744,41.541 Q418.4053,41.541 418.9988,41.2712 Q419.5923,41.0015 420.2231,40.4204 Z "/><text fill="#000000" font-family="sans-serif" font-size="12" lengthAdjust="spacingAndGlyphs" textLength="74" x="432.25" y="41.5352">SuperWorker</text><line style="stroke: #A80036; stroke-width: 1.5;" x1="401.5" x2="510.5" y1="53" y2="53"/><line style="stroke: #A80036; stroke-width: 1.5;" x1="401.5" x2="510.5" y1="61" y2="61"/><text fill="#000000" font-family="sans-serif" font-size="11" lengthAdjust="spacingAndGlyphs" textLength="99" x="406.5" y="75.6348">public void work();</text><path d="M329,155 L329,180.3105 A0,0 0 0 0 329,180.3105 L583,180.3105 A0,0 0 0 0 583,180.3105 L583,165 L573,155 L460,155 L456,82.15 L452,155 L329,155 A0,0 0 0 0 329,155 " fill="#FBFB77" filter="url(#fkk4nbss60c68)" style="stroke: #A80036; stroke-width: 1.0;"/><path d="M573,155 L573,165 L583,165 L573,155 " fill="#FBFB77" style="stroke: #A80036; stroke-width: 1.0;"/><text fill="#000000" font-family="sans-serif" font-size="13" lengthAdjust="spacingAndGlyphs" textLength="233" x="335" y="172.5684">introduction of new class is complex</text><!--link Manager to Worker--><path d="M219.8,51.5 C229.6,51.5 239.4,51.5 249.2,51.5 " fill="none" id="Manager-&gt;Worker" style="stroke: #A80036; stroke-width: 1.0;"/><polygon fill="#A80036" points="254.33,51.5,245.33,47.5,249.33,51.5,245.33,55.5,254.33,51.5" style="stroke: #A80036; stroke-width: 1.0;"/><text fill="#000000" font-family="sans-serif" font-size="13" lengthAdjust="spacingAndGlyphs" textLength="43" x="227.4265" y="46.2549">worker</text><rect fill="#DDDDDD" height="26.4883" rx="5" ry="5" style="stroke: #000000; stroke-width: 1.0;" width="330" x="262" y="198"/><text fill="#000000" font-family="sans-serif" font-size="14" font-style="italic" lengthAdjust="spacingAndGlyphs" textLength="318" x="268" y="216.5352">Dependency Inversion Principle - Bad example</text><!--
@startuml


class Worker {

	public void work();

}

class Manager {

	public void setWorker(Worker);

	public void manage();

}
note bottom : public void manage(){worker.work();}

Manager -> "worker" Worker

class SuperWorker {
	public void work();
}
note bottom : introduction of new class is complex

legend right
  <i>Dependency Inversion Principle - Bad example</i>
endlegend

@enduml

PlantUML version 1.2019.09(Mon Aug 26 18:19:51 CEST 2019)
(GPL source distribution)
Java Runtime: Java(TM) SE Runtime Environment
JVM: Java HotSpot(TM) 64-Bit Server VM
Java Version: 1.8.0_152-b16
Operating System: Mac OS X
OS Version: 10.15.3
Default Encoding: UTF-8
Language: fr
Country: FR
--></g></svg>