<?xml version="1.0" encoding="UTF-8" standalone="no"?><svg xmlns="http://www.w3.org/2000/svg" xmlns:xlink="http://www.w3.org/1999/xlink" contentScriptType="application/ecmascript" contentStyleType="text/css" height="258px" preserveAspectRatio="none" style="width:917px;height:258px;" version="1.1" viewBox="0 0 917 258" width="917px" zoomAndPan="magnify"><defs><filter height="300%" id="f122lal3cw97t8" width="300%" x="-1" y="-1"><feGaussianBlur result="blurOut" stdDeviation="2.0"/><feColorMatrix in="blurOut" result="blurOut2" type="matrix" values="0 0 0 0 0 0 0 0 0 0 0 0 0 0 0 0 0 0 .4 0"/><feOffset dx="4.0" dy="4.0" in="blurOut2" result="blurOut3"/><feBlend in="SourceGraphic" in2="blurOut3" mode="normal"/></filter></defs><g><!--class IWorker--><rect fill="#FEFECE" filter="url(#f122lal3cw97t8)" height="60.9551" id="IWorker" style="stroke: #A80036; stroke-width: 1.5;" width="111" x="614" y="14.5"/><ellipse cx="644.75" cy="30.5" fill="#B4A7E5" rx="11" ry="11" style="stroke: #A80036; stroke-width: 1.0;"/><path d="M641.1777,26.7651 L641.1777,24.6069 L648.5571,24.6069 L648.5571,26.7651 L646.0918,26.7651 L646.0918,34.8418 L648.5571,34.8418 L648.5571,37 L641.1777,37 L641.1777,34.8418 L643.6431,34.8418 L643.6431,26.7651 Z "/><text fill="#000000" font-family="sans-serif" font-size="12" font-style="italic" lengthAdjust="spacingAndGlyphs" textLength="44" x="662.25" y="35.0352">IWorker</text><line style="stroke: #A80036; stroke-width: 1.5;" x1="615" x2="724" y1="46.5" y2="46.5"/><line style="stroke: #A80036; stroke-width: 1.5;" x1="615" x2="724" y1="54.5" y2="54.5"/><text fill="#000000" font-family="sans-serif" font-size="11" lengthAdjust="spacingAndGlyphs" textLength="99" x="620" y="69.1348">public void work();</text><!--class Worker--><rect fill="#FEFECE" filter="url(#f122lal3cw97t8)" height="60.9551" id="Worker" style="stroke: #A80036; stroke-width: 1.5;" width="128" x="605.5" y="142"/><ellipse cx="645.25" cy="158" fill="#ADD1B2" rx="11" ry="11" style="stroke: #A80036; stroke-width: 1.0;"/><path d="M647.7231,164.1431 Q647.1421,164.4419 646.5029,164.5913 Q645.8638,164.7407 645.1582,164.7407 Q642.6514,164.7407 641.3315,163.0889 Q640.0117,161.437 640.0117,158.3159 Q640.0117,155.1865 641.3315,153.5347 Q642.6514,151.8828 645.1582,151.8828 Q645.8638,151.8828 646.5112,152.0322 Q647.1587,152.1816 647.7231,152.4805 L647.7231,155.2031 Q647.0923,154.6221 646.4988,154.3523 Q645.9053,154.0825 645.2744,154.0825 Q643.9297,154.0825 643.2449,155.1492 Q642.5601,156.2158 642.5601,158.3159 Q642.5601,160.4077 643.2449,161.4744 Q643.9297,162.541 645.2744,162.541 Q645.9053,162.541 646.4988,162.2712 Q647.0923,162.0015 647.7231,161.4204 Z "/><text fill="#000000" font-family="sans-serif" font-size="12" lengthAdjust="spacingAndGlyphs" textLength="41" x="664.75" y="162.5352">Worker</text><line style="stroke: #A80036; stroke-width: 1.5;" x1="606.5" x2="732.5" y1="174" y2="174"/><line style="stroke: #A80036; stroke-width: 1.5;" x1="606.5" x2="732.5" y1="182" y2="182"/><text fill="#000000" font-family="sans-serif" font-size="11" lengthAdjust="spacingAndGlyphs" textLength="116" x="611.5" y="196.6348">public void work() {...}</text><!--class SuperWorker--><rect fill="#FEFECE" filter="url(#f122lal3cw97t8)" height="60.9551" id="SuperWorker" style="stroke: #A80036; stroke-width: 1.5;" width="128" x="768.5" y="142"/><ellipse cx="793.4" cy="158" fill="#ADD1B2" rx="11" ry="11" style="stroke: #A80036; stroke-width: 1.0;"/><path d="M795.8731,164.1431 Q795.2921,164.4419 794.6529,164.5913 Q794.0138,164.7407 793.3082,164.7407 Q790.8014,164.7407 789.4815,163.0889 Q788.1617,161.437 788.1617,158.3159 Q788.1617,155.1865 789.4815,153.5347 Q790.8014,151.8828 793.3082,151.8828 Q794.0138,151.8828 794.6612,152.0322 Q795.3087,152.1816 795.8731,152.4805 L795.8731,155.2031 Q795.2423,154.6221 794.6488,154.3523 Q794.0553,154.0825 793.4244,154.0825 Q792.0797,154.0825 791.3949,155.1492 Q790.7101,156.2158 790.7101,158.3159 Q790.7101,160.4077 791.3949,161.4744 Q792.0797,162.541 793.4244,162.541 Q794.0553,162.541 794.6488,162.2712 Q795.2423,162.0015 795.8731,161.4204 Z "/><text fill="#000000" font-family="sans-serif" font-size="12" lengthAdjust="spacingAndGlyphs" textLength="74" x="809.6" y="162.5352">SuperWorker</text><line style="stroke: #A80036; stroke-width: 1.5;" x1="769.5" x2="895.5" y1="174" y2="174"/><line style="stroke: #A80036; stroke-width: 1.5;" x1="769.5" x2="895.5" y1="182" y2="182"/><text fill="#000000" font-family="sans-serif" font-size="11" lengthAdjust="spacingAndGlyphs" textLength="116" x="774.5" y="196.6348">public void work() {...}</text><!--class Manager--><rect fill="#FEFECE" filter="url(#f122lal3cw97t8)" height="73.9102" id="Manager" style="stroke: #A80036; stroke-width: 1.5;" width="208" x="356.5" y="8"/><ellipse cx="431.25" cy="24" fill="#ADD1B2" rx="11" ry="11" style="stroke: #A80036; stroke-width: 1.0;"/><path d="M433.7231,30.1431 Q433.1421,30.4419 432.5029,30.5913 Q431.8638,30.7407 431.1582,30.7407 Q428.6514,30.7407 427.3315,29.0889 Q426.0117,27.437 426.0117,24.3159 Q426.0117,21.1865 427.3315,19.5347 Q428.6514,17.8828 431.1582,17.8828 Q431.8638,17.8828 432.5112,18.0322 Q433.1587,18.1816 433.7231,18.4805 L433.7231,21.2031 Q433.0923,20.6221 432.4988,20.3523 Q431.9053,20.0825 431.2744,20.0825 Q429.9297,20.0825 429.2449,21.1492 Q428.5601,22.2158 428.5601,24.3159 Q428.5601,26.4077 429.2449,27.4744 Q429.9297,28.541 431.2744,28.541 Q431.9053,28.541 432.4988,28.2712 Q433.0923,28.0015 433.7231,27.4204 Z "/><text fill="#000000" font-family="sans-serif" font-size="12" lengthAdjust="spacingAndGlyphs" textLength="50" x="451.75" y="28.5352">Manager</text><line style="stroke: #A80036; stroke-width: 1.5;" x1="357.5" x2="563.5" y1="40" y2="40"/><text fill="#000000" font-family="sans-serif" font-size="11" lengthAdjust="spacingAndGlyphs" textLength="84" x="362.5" y="54.6348">IWorker worker;</text><line style="stroke: #A80036; stroke-width: 1.5;" x1="357.5" x2="563.5" y1="60.9551" y2="60.9551"/><text fill="#000000" font-family="sans-serif" font-size="11" lengthAdjust="spacingAndGlyphs" textLength="196" x="362.5" y="75.5898">public void setWorker(IWorker w) {...}</text><path d="M320.5,160 L320.5,185.3105 A0,0 0 0 0 320.5,185.3105 L570.5,185.3105 A0,0 0 0 0 570.5,185.3105 L570.5,170 L560.5,160 L450.9,160 L456.16,82.3 L442.9,160 L320.5,160 A0,0 0 0 0 320.5,160 " fill="#FBFB77" filter="url(#f122lal3cw97t8)" style="stroke: #A80036; stroke-width: 1.0;"/><path d="M560.5,160 L560.5,170 L570.5,170 L560.5,160 " fill="#FBFB77" style="stroke: #A80036; stroke-width: 1.0;"/><text fill="#000000" font-family="sans-serif" font-size="13" lengthAdjust="spacingAndGlyphs" textLength="229" x="326.5" y="177.5684">public void manage(){worker.work();}</text><path d="M6,32.5 L6,57.8105 A0,0 0 0 0 6,57.8105 L321,57.8105 A0,0 0 0 0 321,57.8105 L321,50.5 L356.36,45 L321,42.5 L321,42.5 L311,32.5 L6,32.5 A0,0 0 0 0 6,32.5 " fill="#FBFB77" filter="url(#f122lal3cw97t8)" style="stroke: #A80036; stroke-width: 1.0;"/><path d="M311,32.5 L311,42.5 L321,42.5 L311,32.5 " fill="#FBFB77" style="stroke: #A80036; stroke-width: 1.0;"/><text fill="#000000" font-family="sans-serif" font-size="13" lengthAdjust="spacingAndGlyphs" textLength="294" x="12" y="50.0684">public void setWorker(IWorker w) {worker = w;}</text><!--reverse link IWorker to Worker--><path d="M669.5,95.95 C669.5,111.55 669.5,128.25 669.5,141.97 " fill="none" id="IWorker&lt;-Worker" style="stroke: #A80036; stroke-width: 1.0; stroke-dasharray: 7.0,7.0;"/><polygon fill="none" points="662.5,95.74,669.5,75.74,676.5,95.74,662.5,95.74" style="stroke: #A80036; stroke-width: 1.0;"/><!--reverse link IWorker to SuperWorker--><path d="M724.16,88.09 C747.12,105.77 773.29,125.91 794.15,141.97 " fill="none" id="IWorker&lt;-SuperWorker" style="stroke: #A80036; stroke-width: 1.0; stroke-dasharray: 7.0,7.0;"/><polygon fill="none" points="719.71,93.49,708.13,75.74,728.25,82.4,719.71,93.49" style="stroke: #A80036; stroke-width: 1.0;"/><!--link Manager to IWorker--><path d="M564.59,45 C579.19,45 593.79,45 608.39,45 " fill="none" id="Manager-&gt;IWorker" style="stroke: #A80036; stroke-width: 1.0;"/><polygon fill="#A80036" points="613.77,45,604.77,41,608.77,45,604.77,49,613.77,45" style="stroke: #A80036; stroke-width: 1.0;"/><text fill="#000000" font-family="sans-serif" font-size="13" lengthAdjust="spacingAndGlyphs" textLength="43" x="572.6714" y="41.1714">worker</text><rect fill="#DDDDDD" height="26.4883" rx="5" ry="5" style="stroke: #000000; stroke-width: 1.0;" width="342" x="564" y="221"/><text fill="#000000" font-family="sans-serif" font-size="14" font-style="italic" lengthAdjust="spacingAndGlyphs" textLength="330" x="570" y="239.5352">Dependency Inversion Principle - Good example</text><!--
@startuml


interface IWorker {

	public void work();

}

class Worker implements IWorker {

	public void work() {...}

}

class SuperWorker  implements IWorker{
	public void work() {...}
}

class Manager {
	IWorker worker;

	public void setWorker(IWorker w) {...}
}
note bottom : public void manage(){worker.work();}

note left of Manager : public void setWorker(IWorker w) {worker = w;}

Manager -> "worker" IWorker

legend right
  <i>Dependency Inversion Principle - Good example</i>
endlegend

@enduml

PlantUML version 1.2019.09(Mon Aug 26 18:19:51 CEST 2019)
(GPL source distribution)
Java Runtime: Java(TM) SE Runtime Environment
JVM: Java HotSpot(TM) 64-Bit Server VM
Java Version: 1.8.0_152-b16
Operating System: Mac OS X
OS Version: 10.15.3
Default Encoding: UTF-8
Language: fr
Country: FR
--></g></svg>